<svg xmlns="http://www.w3.org/2000/svg" width="391" height="511.312" viewBox="0 0 391 511.312">
  <path id="Soustraction_9" data-name="Soustraction 9" d="M390,1004H0V766.8a281.475,281.475,0,0,1,49.482-27.039,439.865,439.865,0,0,1,45.435-16.109c15.208-4.562,30.741-8.6,45.763-12.5l.051-.013.041-.011.025-.007.094-.024.044-.01.019-.005.079-.021c13.9-3.608,28.27-7.339,42.365-11.485,15.844-4.659,29.612-9.347,42.091-14.333,31.878-12.733,60.056-30.04,83.752-51.439a250.714,250.714,0,0,0,35.9-40.206,258.572,258.572,0,0,0,15.407-24.293,274.422,274.422,0,0,0,13.308-27.3c3.453-8.2,6.672-16.9,9.567-25.858,2.345-7.257,4.557-14.942,6.574-22.841V1004Z" transform="translate(0.5 -493.19)" fill="#191b34" stroke="rgba(0,0,0,0)" stroke-width="1"/>
</svg>
