<svg id="calendrier_icon" xmlns="http://www.w3.org/2000/svg" xmlns:xlink="http://www.w3.org/1999/xlink" width="20" height="20" viewBox="0 0 20 20">
  <defs>
    <clipPath id="clip-path">
      <rect id="Rectangle_769" data-name="Rectangle 769" width="20" height="20" fill="#6f7497"/>
    </clipPath>
  </defs>
  <g id="Groupe_509" data-name="Groupe 509" clip-path="url(#clip-path)">
    <path id="Tracé_117" data-name="Tracé 117" d="M18,2.667H16.963V1a1,1,0,1,0-2,0V2.667H5.037V1a1,1,0,0,0-2,0V2.667H2a2,2,0,0,0-2,2H20a2,2,0,0,0-2-2" fill="#6f7497"/>
    <path id="Tracé_118" data-name="Tracé 118" d="M0,21.333a2,2,0,0,0,2,2H18a2,2,0,0,0,2-2V10H0Zm14.565-8.5h2.667V15.5H14.565Zm0,5.008h2.667V20.5H14.565Zm-5.9-5.008h2.667V15.5H8.667Zm0,5.008h2.667V20.5H8.667Zm-5.9-5.008H5.435V15.5H2.769Zm0,5.008H5.435V20.5H2.769Z" transform="translate(0 -3.333)" fill="#6f7497"/>
  </g>
</svg>
