<svg id="Composant_57_3" data-name="Composant 57 – 3" xmlns="http://www.w3.org/2000/svg" xmlns:xlink="http://www.w3.org/1999/xlink" width="30" height="30" viewBox="0 0 30 30">
  <defs>
    <clipPath id="clip-path">
      <rect id="Rectangle_665" data-name="Rectangle 665" width="30" height="30" fill="none"/>
    </clipPath>
  </defs>
  <g id="Groupe_261" data-name="Groupe 261" transform="translate(30) rotate(90)" clip-path="url(#clip-path)">
    <path id="Tracé_49" data-name="Tracé 49" d="M2.99,14.342A11.99,11.99,0,0,1,22.121,5.38l-1.155-.006a1.5,1.5,0,1,0-.016,3l5,.026h0a1.5,1.5,0,0,0,1.51-1.493l.026-5a1.5,1.5,0,0,0-3-.016l-.008,1.526A14.953,14.953,0,0,0,1.431,8.6l-.01,0a14.321,14.321,0,0,0-1.028,3A14.325,14.325,0,0,0,0,15.294a.72.72,0,0,0,0,.073,1.5,1.5,0,0,0,2.965-.085c-.006-.316,0-.626.017-.94" fill="#9590ff"/>
    <path id="Tracé_50" data-name="Tracé 50" d="M29.991,14.633a1.5,1.5,0,0,0-2.965.085c.006.316,0,.626-.017.94A11.99,11.99,0,0,1,7.878,24.62l1.155.006a1.5,1.5,0,1,0,.016-3l-5-.027h0a1.5,1.5,0,0,0-1.509,1.493l-.027,5a1.5,1.5,0,0,0,3,.016l.008-1.526A14.955,14.955,0,0,0,28.569,21.4l.009,0a14.324,14.324,0,0,0,1.029-3A14.369,14.369,0,0,0,30,14.706c0-.023,0-.041-.005-.073" fill="#9590ff"/>
  </g>
</svg>
